# Blender 3.6.10
# www.blender.org
mtllib Coral1.mtl
o Coral
v -0.175037 -0.845855 0.191613
v -0.178474 -0.745694 0.290217
v -0.267666 -0.700717 0.200848
v -0.175037 -0.845855 -0.072476
v -0.268180 -0.705273 -0.070016
v -0.205075 1.206931 -0.019801
v -0.175306 -0.755356 -0.161777
v 0.089052 -0.845855 0.191613
v 0.181919 -0.702856 0.198707
v 0.094803 -0.743951 0.289498
v 0.089052 -0.845855 -0.072476
v 0.092412 -0.754969 -0.161372
v 0.182214 -0.705499 -0.069986
v -0.190352 1.462220 0.123275
v -0.105285 1.410072 0.212458
v -0.130868 0.804269 -0.121500
v 0.132592 0.887439 -0.031621
v 0.018220 1.428804 -0.092543
v 0.013429 1.550690 0.203185
v 0.058538 2.473980 0.073186
v -0.052121 2.711455 0.074951
v -0.109268 2.533430 0.063973
v -0.060973 2.470864 -0.007896
v -0.118739 -0.820791 0.485109
v -0.122908 -0.760314 0.550520
v -0.177352 -0.729484 0.493970
v -0.117073 -0.812142 0.317646
v -0.184952 -0.703642 0.315574
v 0.048947 -0.821318 0.486750
v 0.108022 -0.730770 0.497762
v 0.050559 -0.760456 0.552542
v 0.058622 -0.780467 0.276290
v 0.109985 -0.723930 0.326044
v -0.087688 1.266160 0.510257
v -0.119921 -0.737842 0.254121
v 0.080895 0.285062 0.402265
v -0.031356 1.213498 0.444929
v -0.035789 0.817345 0.580675
v 0.035128 1.304852 0.521012
v -0.033772 1.439296 0.528140
v -0.158692 -0.847093 -0.139601
v -0.161497 -0.774217 -0.087118
v -0.218252 -0.756210 -0.146229
v -0.163126 -0.870813 -0.305550
v -0.233375 -0.764034 -0.324983
v 0.008936 -0.846090 -0.144223
v 0.075317 -0.739682 -0.153914
v 0.013110 -0.773815 -0.091347
v 0.006870 -0.847978 -0.357976
v -0.046240 0.399429 -0.513852
v 0.062430 -0.780871 -0.323360
v -0.184212 0.592245 -0.388074
v -0.122946 1.365666 -0.533951
v -0.171140 -0.809025 -0.380554
v -0.034269 1.228658 -0.523352
v -0.096086 0.779396 -0.363641
v -0.111698 1.202296 -0.565520
v -0.247587 -0.857031 0.131352
v -0.257183 -0.750375 0.203019
v -0.347006 -0.737917 0.123779
v -0.267192 -0.901821 -0.102884
v -0.367039 -0.786697 -0.114264
v -0.491933 0.454979 -0.310420
v -0.283459 -0.836456 -0.198403
v -0.011165 -0.829866 0.106369
v 0.055568 -0.692685 0.081118
v -0.010759 -0.723945 0.176788
v -0.030770 -0.874655 -0.127867
v -0.047891 -0.810184 -0.221462
v -0.339825 1.018285 -0.489955
v 0.035596 -0.740463 -0.157534
v -0.609355 2.026965 -0.505673
v -0.450867 1.153586 -0.217130
v -0.425088 0.539750 -0.411537
v -0.258730 1.025240 -0.415553
v -0.361761 1.283097 -0.257607
v -0.434933 2.069143 -0.523030
v -0.567269 2.281935 -0.550069
v -0.553964 2.039731 -0.584052
v -0.059109 -0.814067 0.135058
v -0.080065 -0.709876 0.205051
v -0.130049 -0.680502 0.099597
v 0.005005 -0.852435 -0.092263
v -0.065463 -0.722696 -0.131689
v 0.072304 0.519480 -0.270768
v 0.033599 -0.784544 -0.180829
v 0.170481 -0.824791 0.201621
v 0.260790 -0.699771 0.212756
v 0.159067 -0.719308 0.274607
v 0.234595 -0.863159 -0.025699
v 0.262660 -0.794847 -0.116266
v 0.359442 1.024791 -0.338294
v 0.326069 -0.741182 -0.018113
v 0.265000 2.095109 -0.387332
v 0.182896 1.260888 -0.132123
v 0.185649 0.612916 -0.335400
v 0.399441 0.689583 -0.202319
v 0.286370 1.275781 -0.104536
v 0.435735 2.123382 -0.334935
v 0.362396 2.346943 -0.393028
v 0.350479 2.115569 -0.434185
v 0.067166 -0.788559 -0.260619
v 0.103407 -0.814894 -0.389630
v 0.182996 -0.799096 -0.232343
v 0.216532 -0.818479 -0.357444
v 0.221097 0.235148 -0.421730
v 0.223112 -0.009042 -0.479654
v 0.276506 0.287491 -0.456407
v 0.230503 0.372309 -0.486817
v -0.355430 -0.783026 0.317352
v -0.387225 -0.739616 0.297381
v -0.389183 -0.724242 0.184352
v -0.348885 -0.776525 0.158610
v -0.238211 -0.796983 0.293374
v -0.216163 -0.752853 0.328871
v -0.220207 -0.763769 0.160665
v -0.311921 0.224595 0.378076
v -0.320142 0.494321 0.286553
v -0.264972 0.534948 0.337292
v -0.338159 0.663289 0.352101
v -0.402165 -0.853292 -0.032989
v -0.421685 -0.867142 -0.165346
v -0.294513 -0.805014 -0.041158
v -0.763334 0.115101 -0.259202
v -0.308503 -0.831829 -0.179372
v -0.674844 -0.050506 -0.146538
v -0.754718 0.206530 -0.231731
v -0.826587 0.248064 -0.226849
v 0.051524 -0.782267 0.345080
v 0.035855 -0.727759 0.321584
v 0.089958 -0.788626 0.203962
v 0.063541 -0.703348 0.200523
v 0.170927 -0.829928 0.342151
v 0.198048 -0.792388 0.387141
v 0.217541 -0.796998 0.203970
v 0.252781 -0.769787 0.249030
v 0.459408 0.692482 0.511857
v 0.110460 -0.736004 0.165792
v 0.461130 0.554375 0.447915
v 0.365023 0.258424 0.509643
v 0.505900 0.546033 0.502312
v 0.244959 -0.761975 0.057031
v 0.220777 -0.696940 0.092971
v 0.289005 -0.769624 -0.099610
v 0.259335 -0.670498 -0.113528
v 0.316714 -0.717609 -0.151382
v 0.395774 -0.804530 0.101517
v 0.426957 -0.748251 0.157370
v 0.461431 -0.792190 -0.087313
v 0.745943 0.416695 -0.051169
v 0.515314 -0.743484 -0.036171
v 0.707485 0.588026 -0.059904
v 0.741596 0.957269 0.029216
v 0.759571 0.844931 0.127958
v 0.939720 1.157653 0.080485
v 0.903823 1.329281 0.050021
v 0.874016 1.226889 0.086427
vn 0.0543 0.0333 -0.9980
vn 0.9964 0.0416 0.0740
vn -0.9968 0.0738 -0.0292
vn -0.0491 0.1069 0.9931
vn -0.7269 -0.4943 0.4767
vn -0.7342 -0.4780 -0.4822
vn 0.7277 -0.4961 0.4737
vn 0.7408 -0.4835 -0.4663
vn 0.0024 0.0360 0.9994
vn -0.6808 0.2607 -0.6845
vn 0.5380 0.2567 -0.8029
vn 0.0015 0.0258 -0.9997
vn 0.9995 0.0311 0.0008
vn -0.1098 0.0722 -0.9913
vn 0.6299 0.0458 -0.7753
vn 0.1438 0.0898 -0.9855
vn 0.9957 0.0347 0.0860
vn -0.7399 -0.5168 0.4306
vn -0.7251 -0.4634 -0.5094
vn 0.7141 -0.5225 0.4659
vn -0.6125 0.2676 -0.7438
vn 0.5073 0.3028 -0.8068
vn 0.9995 0.0279 0.0125
vn 0.4520 0.0954 -0.8869
vn -0.7137 -0.4272 0.5551
vn -0.7400 -0.5558 -0.3788
vn 0.7478 -0.4196 0.5145
vn 0.5911 -0.0752 -0.8031
vn 0.6454 0.1755 0.7434
vn 0.4152 0.2001 -0.8875
vn -0.2404 -0.0818 -0.9672
vn 0.8151 -0.0184 -0.5790
vn 0.0212 0.2849 0.9583
vn -0.6180 -0.4760 0.6257
vn -0.7005 -0.6389 -0.3179
vn 0.8251 -0.3150 0.4691
vn 0.7496 -0.4731 -0.4630
vn 0.6168 -0.0171 -0.7869
vn -0.8188 0.0354 -0.5729
vn 0.4218 0.1487 -0.8944
vn 0.6758 0.0049 -0.7371
vn 0.9405 0.0076 0.3396
vn -0.2840 0.2681 0.9206
vn -0.8719 -0.3816 0.3070
vn -0.6169 -0.5157 -0.5945
vn 0.5262 -0.4446 0.7249
vn 0.7907 -0.5809 -0.1932
vn -0.5052 0.1763 -0.8448
vn 0.7533 0.0774 -0.6531
vn 0.9615 -0.0140 0.2744
vn -0.5840 -0.0039 -0.8117
vn 0.1699 0.4129 0.8948
vn 0.9644 -0.0288 0.2630
vn 0.4724 0.3621 -0.8036
vn 0.0060 0.1000 -0.9950
vn 0.9989 0.0380 -0.0265
vn 0.6193 0.1267 -0.7749
vn 0.9090 0.3822 -0.1662
vn 0.0958 0.2781 -0.9557
vn 0.5459 0.1935 -0.8152
vn 0.3827 0.0969 -0.9188
vn -0.6795 -0.2385 -0.6938
vn 0.7619 0.2799 -0.5841
vn 0.9156 -0.2385 0.3238
vn 0.7701 -0.0237 -0.6375
vn 0.3769 0.0374 -0.9255
vn -0.6840 -0.2982 -0.6657
vn 0.7510 -0.1576 -0.6412
vn 0.3263 0.2309 0.9166
vn 0.9327 -0.1894 -0.3070
vn -0.9986 0.0370 0.0367
vn -0.6298 0.0791 -0.7727
vn 0.7021 0.0390 -0.7110
vn -0.9995 0.0329 0.0013
vn 0.2746 0.1209 0.9539
vn -0.7858 0.0953 -0.6111
vn -0.9978 0.0444 0.0489
vn 0.6494 0.0759 -0.7566
vn -0.5189 0.0736 0.8517
vn 0.2568 0.0805 0.9631
vn 0.6754 0.1151 -0.7284
vn 0.9956 0.0394 -0.0853
vn -0.9958 0.0399 0.0825
vn -0.0896 -0.7734 -0.6275
vn -0.9570 0.0212 -0.2894
vn 0.3209 0.2777 0.9055
vn 0.4827 -0.0170 -0.8756
vn -0.9803 -0.0495 0.1913
vn -0.9914 -0.0838 0.1006
vn -0.4009 0.2210 0.8891
vn 0.3494 0.3288 0.8774
vn -0.9756 0.1051 -0.1926
vn -0.9569 0.0747 -0.2808
vn -0.6736 0.2760 0.6856
vn 0.0229 0.2585 0.9657
vn -0.9554 0.0790 -0.2845
vn 0.2664 -0.1460 -0.9527
vn 0.4200 0.1485 0.8953
vn -0.9522 0.1818 0.2456
vn -0.9992 0.0341 0.0219
vn -0.4405 0.0998 -0.8922
vn -0.8775 0.0892 -0.4712
vn 0.8920 -0.4520 0.0079
vn 0.0778 -0.6482 0.7575
vn 0.5891 0.0170 0.8079
vn 0.3227 0.0752 0.9435
vn -0.9291 -0.3279 0.1713
vn -0.0839 -0.1237 -0.9888
vn -0.6008 -0.0918 0.7941
vn 0.2790 0.3791 0.8823
vn -0.9409 0.3013 -0.1544
vn 0.7981 -0.0378 -0.6014
vn -0.0378 -0.5770 -0.8158
vn -0.2481 -0.6650 0.7044
vn 0.3889 -0.1674 0.9059
vn 0.1116 -0.0293 0.9933
vn 0.2252 0.0009 -0.9743
vn -0.9461 0.2925 -0.1392
vn -0.0396 -0.6942 -0.7187
vn 0.3775 -0.0612 -0.9240
vn -0.8355 0.2812 0.4721
vn 0.1537 0.0612 0.9862
vn -0.7207 0.0420 -0.6920
vn -0.8336 -0.5523 -0.0000
vn -0.0000 -0.7024 -0.7118
vn 0.8332 -0.5530 -0.0000
vn -0.0000 -0.7015 0.7126
vn 0.7088 0.0516 0.7035
vn -0.6944 0.0495 0.7179
vn -0.6931 0.0920 0.7149
vn 0.5561 0.1092 -0.8239
vn -0.0000 -1.0000 -0.0000
vn -0.7103 0.1039 -0.6962
vn -0.0117 -0.0185 0.9998
vn -0.8426 -0.5374 -0.0361
vn 0.7740 -0.6273 -0.0862
vn -0.0611 -0.6500 -0.7575
vn -0.0089 -0.7339 0.6792
vn 0.6832 0.0244 0.7299
vn -0.7130 0.0260 0.7006
vn 0.1325 -0.9741 -0.1830
vn -0.9238 0.0104 -0.3827
vn 0.0234 0.1742 0.9844
vn -0.8356 -0.5403 0.0996
vn 0.7707 -0.6372 -0.0018
vn 0.0992 -0.1192 -0.9879
vn 0.0210 -0.5837 0.8117
vn -0.5759 0.1667 0.8003
vn 0.6486 0.1754 0.7406
vn 0.1354 -0.9908 0.0074
vn -0.6199 0.1926 0.7607
vn 0.9827 0.1475 -0.1118
vn 0.0796 0.2225 0.9717
vn -0.7485 -0.1763 -0.6393
vn -0.7985 -0.1361 -0.5865
vn -0.7515 -0.6336 0.1840
vn 0.0344 -0.8220 -0.5684
vn -0.0498 -0.1529 -0.9870
vn 0.8971 -0.4416 0.0094
vn 0.1462 -0.5426 0.8271
vn 0.7507 0.2625 0.6062
vn -0.1804 -0.1277 -0.9753
vn -0.6504 0.1000 0.7530
vn 0.4536 0.0130 -0.8911
vn 0.1307 -0.9757 0.1756
vn -0.2666 0.1970 0.9434
vn -0.4673 -0.0470 -0.8829
vn 0.8610 -0.1081 -0.4971
vn -0.4928 -0.0041 -0.8701
vn -0.8480 -0.5073 -0.1536
vn 0.1279 -0.8105 -0.5717
vn 0.2951 -0.1312 -0.9464
vn 0.7512 -0.5826 0.3102
vn -0.2526 -0.5740 0.7789
vn 0.4965 0.1314 0.8580
vn 0.1841 -0.0846 -0.9793
vn -0.8642 0.1947 0.4639
vn 0.7596 -0.0508 -0.6485
vn -0.0872 -0.9860 0.1418
vn -0.1289 -0.9781 0.1635
vn -0.2173 0.1836 0.9587
vn 0.7964 -0.0966 -0.5970
vn 0.5173 -0.0261 -0.8554
vn -0.7926 -0.6070 -0.0575
vn -0.0700 -0.0570 0.9959
vn -0.5569 -0.0260 0.8302
vn 0.0996 -0.9684 -0.2288
vn 0.3036 -0.9512 0.0548
vn 0.0107 0.1436 0.9896
vn -0.8805 -0.3380 -0.3323
vn 0.6412 0.4135 0.6464
vn -0.5939 0.3319 -0.7329
vn -0.2796 -0.0672 0.9578
vn -0.9044 -0.3592 -0.2301
vn 0.6012 -0.7990 0.0124
vn -0.7038 0.1008 0.7032
vn -0.3713 -0.9266 -0.0594
vn -0.9193 -0.3093 -0.2434
vn 0.8888 -0.2230 0.4003
vn -0.2800 0.0761 0.9570
vn 0.6815 -0.6700 0.2946
vn -0.3753 -0.5513 0.7451
vn -0.5841 0.2410 -0.7750
vn 0.3408 -0.0538 0.9386
vn -0.8195 0.2987 0.4890
vn -0.2640 -0.9641 -0.0272
vn -0.4600 0.2483 -0.8525
vn 0.6023 -0.0157 -0.7981
vn 0.0322 0.0387 0.9987
vn -0.6918 0.0383 -0.7211
vn -0.8426 -0.5384 0.0107
vn 0.0021 -0.6993 -0.7148
vn 0.8385 -0.5449 0.0063
vn 0.0063 -0.6929 0.7210
vn 0.7549 0.0551 0.6536
vn -0.7077 0.0506 0.7047
vn -0.5096 0.1110 0.8532
vn 0.7331 0.0788 -0.6756
vn -0.6540 0.1030 -0.7494
vn -0.8467 -0.5305 -0.0408
vn 0.8381 -0.5453 -0.0121
vn -0.0085 -0.7345 0.6786
vn 0.5938 0.0121 0.8045
vn -0.7165 0.0265 0.6970
vn -0.0026 -0.9987 -0.0516
vn -0.6839 -0.0467 -0.7281
vn -0.8395 -0.5351 0.0944
vn 0.8493 -0.5241 0.0628
vn 0.0258 -0.5912 0.8061
vn -0.6914 0.1444 0.7079
vn 0.0098 -0.9899 0.1412
vn 0.9845 0.1585 -0.0749
vn 0.1078 0.2283 0.9676
vn -0.7467 -0.1762 -0.6414
vn -0.7708 -0.1349 -0.6226
vn -0.7595 -0.6217 0.1913
vn 0.0355 -0.8200 -0.5713
vn -0.0784 -0.1605 -0.9839
vn 0.9000 -0.4356 0.0119
vn 0.1499 -0.5478 0.8231
vn 0.7867 0.2620 0.5590
vn -0.7625 0.0740 0.6427
vn 0.6738 0.0378 -0.7379
vn -0.2789 0.1964 0.9400
vn -0.4652 -0.0472 -0.8840
vn 0.8494 -0.1082 -0.5166
vn -0.4797 -0.0051 -0.8774
vn -0.8564 -0.4944 -0.1489
vn 0.1265 -0.8066 -0.5774
vn 0.2632 -0.1343 -0.9553
vn 0.7554 -0.5738 0.3165
vn -0.2503 -0.5691 0.7833
vn 0.5586 0.1245 0.8200
vn -0.9310 0.1875 0.3133
vn 0.9061 -0.0616 -0.4185
vn -0.0696 -0.9885 0.1345
vn -0.8058 -0.5885 -0.0661
vn -0.7196 -0.0019 0.6944
vn -0.1273 -0.9908 -0.0458
vn 0.4139 -0.9006 0.1328
vn -0.4226 0.3017 -0.8546
vn -0.9169 -0.2949 -0.2691
vn 0.6974 -0.6981 0.1621
vn -0.8337 0.1786 0.5226
vn -0.0634 -0.9658 -0.2515
vn -0.9488 -0.2380 -0.2076
vn 0.5810 -0.8000 0.1497
vn -0.3705 -0.5428 0.7537
vn -0.4273 0.1898 -0.8840
vn -0.8779 0.3655 0.3093
vn -0.1215 -0.9868 -0.1067
vt 0.625000 0.314189
vt 0.625000 0.428007
vt 0.426159 0.447891
vt 0.625000 0.564113
vt 0.625000 0.618855
vt 0.427134 0.697889
vt 0.625000 0.182202
vt 0.625000 0.071877
vt 0.625000 0.116354
vt 0.625000 0.928138
vt 0.625000 0.822850
vt 0.625000 0.866354
vt 0.177111 0.697889
vt 0.177111 0.750000
vt 0.125000 0.697889
vt 0.177111 0.552111
vt 0.125000 0.552111
vt 0.177111 0.500000
vt 0.322889 0.697889
vt 0.375000 0.697889
vt 0.322889 0.750000
vt 0.322889 0.552111
vt 0.322889 0.500000
vt 0.375000 0.552111
vt 0.429254 0.802114
vt 0.428734 0.947886
vt 0.625000 0.250000
vt 0.625000 0.115943
vt 0.625000 0.500000
vt 0.625000 0.362769
vt 0.425838 0.302111
vt 0.426158 0.552111
vt 0.625000 0.378577
vt 0.428571 0.302260
vt 0.625000 0.368610
vt 0.426159 0.447891
vt 0.427280 0.697889
vt 0.625000 0.564630
vt 0.625000 0.617798
vt 0.625000 0.115964
vt 0.426227 0.552111
vt 0.426068 0.447889
vt 0.625000 0.431967
vt 0.625000 0.840448
vt 0.429742 0.697660
vt 0.625000 0.613403
vt 0.625000 0.361177
vt 0.625000 0.376327
vt 0.428777 0.302269
vt 0.625000 0.630282
vt 0.625000 0.928095
vt 0.625000 0.822850
vt 0.425678 0.447889
vt 0.625000 0.430809
vt 0.625000 0.115257
vt 0.625000 0.361944
vt 0.625000 0.571011
vt 0.625000 0.619057
vt 0.427134 0.697889
vt 0.625000 0.927666
vt 0.625000 0.822488
vt 0.625000 0.115718
vt 0.625000 0.289505
vt 0.427232 0.259760
vt 0.625000 0.338174
vt 0.625000 0.750000
vt 0.625000 0.615959
vt 0.385082 0.731615
vt 0.343131 0.521767
vt 0.625000 0.631205
vt 0.625000 0.366639
vt 0.426159 0.464247
vt 0.625000 0.379626
vt 0.428482 0.760696
vt 0.625000 0.628835
vt 0.426097 0.466800
vt 0.625000 0.618855
vt 0.428476 0.787827
vt 0.625000 0.364389
vt 0.625000 0.372780
vt 0.625000 0.634092
vt 0.428454 0.302262
vt 0.625000 0.368937
vt 0.426531 0.447890
vt 0.428327 0.760276
vt 0.625000 0.628979
vt 0.625000 0.431963
vt 0.625000 0.322192
vt 0.625000 0.499356
vt 0.426236 0.552111
vt 0.425838 0.447889
vt 0.625000 0.619207
vt 0.625000 0.633329
vt 0.427700 0.052113
vt 0.625000 0.072228
vt 0.426247 0.197889
vt 0.625000 0.883646
vt 0.427443 0.052112
vt 0.625000 0.129796
vt 0.430376 0.197689
vt 0.625000 0.000000
vt 0.625000 0.201952
vt 0.625000 0.857465
vt 0.625000 0.633646
vt 0.427443 0.052112
vt 0.625000 0.072168
vt 0.430597 0.197675
vt 0.322889 0.519525
vt 0.625000 0.231997
vt 0.427443 0.052112
vt 0.625000 0.129358
vt 0.625000 0.188113
vt 0.426247 0.197889
vt 0.625000 0.201953
vt 0.625000 0.619511
vt 0.625000 0.129470
vt 0.625000 0.188238
vt 0.426247 0.197889
vt 0.625000 0.208077
vt 0.625000 0.200145
vt 0.426103 0.468300
vt 0.625000 0.873453
vt 0.428443 0.963170
vt 0.625000 1.000000
vt 0.427700 0.052113
vt 0.625000 0.190901
vt 0.429198 0.197744
vt 0.625000 0.229348
vt 0.177111 0.725946
vt 0.343598 0.729291
vt 0.625000 0.838718
vt 0.625000 0.614951
vt 0.427700 0.052113
vt 0.625000 0.190080
vt 0.426415 0.274583
vt 0.428506 0.968439
vt 0.625000 0.781439
vt 0.625000 0.187230
vt 0.430398 0.197688
vt 0.322889 0.518328
vt 0.177111 0.725842
vt 0.343808 0.729081
vt 0.625000 0.792336
vt 0.625000 0.615146
vt 0.426159 0.302109
vt 0.625000 0.371732
vt 0.426451 0.197888
vt 0.427742 0.052113
vt 0.322889 0.523967
vt 0.428599 0.965354
vt 0.625000 0.699098
vt 0.427700 0.999997
vt 0.625000 0.133646
vt 0.625000 0.382440
vt 0.428806 0.947886
vt 0.429019 0.802114
vt 0.322889 0.518015
vt 0.427443 0.999999
vt 0.429122 0.947884
vt 0.428953 0.802114
vt 0.625000 0.192603
vt 0.625000 0.071808
vt 0.427134 0.697889
vt 0.428701 0.802115
vt 0.429380 0.947885
vt 0.426080 0.302111
vt 0.625000 0.313891
vt 0.625000 0.377411
vt 0.427443 0.999999
vt 0.429259 0.802115
vt 0.625000 0.314189
vt 0.625000 0.431320
vt 0.625000 0.378577
vt 0.164998 0.534387
vt 0.336729 0.714752
vt 0.165498 0.725868
vt 0.625000 0.499356
vt 0.177111 0.527304
vt 0.428560 0.947886
vt 0.427700 0.999997
vt 0.339096 0.523373
vt 0.341639 0.528793
vt 0.164859 0.716702
vt 0.163358 0.523877
vt 0.625000 0.227839
vt 0.625000 0.382691
vt 0.625000 0.222655
vt 0.428831 0.947887
vt 0.428392 0.768897
vt 0.159643 0.732532
vt 0.625000 0.349373
vt 0.625000 0.200655
vt 0.337205 0.732252
vt 0.339497 0.733392
vt 0.625000 0.204190
s 0
usemtl Coral
f 16/1/1 18/2/1 12/3/1
f 17/4/2 20/5/2 9/6/2
f 6/7/3 14/8/3 22/9/3
f 15/10/4 19/11/4 21/12/4
f 1/13/5 2/14/5 3/15/5
f 4/16/6 5/17/6 7/18/6
f 8/19/7 9/20/7 10/21/7
f 11/22/8 12/23/8 13/24/8
f 10/25/9 15/10/9 2/26/9
f 21/27/10 23/27/10 22/28/10
f 21/29/11 20/29/11 23/30/11
f 12/3/12 7/31/12 16/1/12
f 9/6/13 13/32/13 17/4/13
f 18/2/14 16/1/14 23/33/14
f 18/2/15 17/4/15 12/3/15
f 35/34/16 37/35/16 32/36/16
f 30/37/17 36/38/17 39/39/17
f 24/13/18 25/14/18 26/15/18
f 27/16/19 28/17/19 35/18/19
f 29/19/20 30/20/20 31/21/20
f 40/27/21 37/27/21 34/40/21
f 40/29/22 39/29/22 37/35/22
f 30/37/23 33/32/23 36/38/23
f 37/35/24 36/38/24 32/36/24
f 41/13/25 42/14/25 43/15/25
f 44/16/26 45/17/26 54/18/26
f 46/19/27 47/20/27 48/21/27
f 51/41/28 49/42/28 50/43/28
f 56/44/29 47/45/29 55/46/29
f 53/29/30 55/29/30 57/47/30
f 57/48/31 50/43/31 54/49/31
f 50/43/32 55/50/32 51/41/32
f 73/51/33 76/52/33 78/12/33
f 58/13/34 59/14/34 60/15/34
f 61/16/35 62/17/35 64/18/35
f 65/19/36 66/20/36 67/21/36
f 68/22/37 69/23/37 71/24/37
f 71/41/38 69/53/38 70/54/38
f 78/27/39 79/27/39 72/55/39
f 78/29/40 77/29/40 79/56/40
f 70/54/41 75/57/41 71/41/41
f 97/4/42 99/58/42 88/59/42
f 95/60/43 98/61/43 100/12/43
f 80/13/44 81/14/44 82/15/44
f 83/16/45 84/17/45 86/18/45
f 87/19/46 88/20/46 89/21/46
f 90/22/47 91/23/47 93/24/47
f 100/27/48 101/27/48 94/62/48
f 100/29/49 99/29/49 101/30/49
f 88/59/50 93/32/50 97/4/50
f 107/63/51 103/64/51 109/65/51
f 109/66/52 106/66/52 108/67/52
f 104/68/53 105/69/53 108/70/53
f 120/29/54 119/29/54 118/71/54
f 116/72/55 113/31/55 118/73/55
f 115/74/56 116/72/56 119/75/56
f 118/71/57 119/75/57 116/72/57
f 125/76/58 127/77/58 123/78/58
f 128/29/59 127/29/59 124/79/59
f 124/80/60 127/81/60 125/76/60
f 138/82/61 139/83/61 135/84/61
f 131/16/62 132/17/62 138/18/62
f 137/29/63 141/29/63 139/83/63
f 134/85/64 136/32/64 141/86/64
f 139/83/65 141/86/65 135/84/65
f 150/87/66 152/88/66 156/89/66
f 144/16/67 145/17/67 146/18/67
f 151/90/68 149/91/68 150/87/68
f 156/66/69 157/66/69 155/92/69
f 150/87/70 155/93/70 151/90/70
f 3/94/71 14/95/71 6/7/71
f 16/1/72 6/7/72 23/33/72
f 17/4/73 13/32/73 12/3/73
f 3/94/74 6/7/74 5/96/74
f 20/5/75 21/97/75 19/11/75
f 6/7/76 22/9/76 23/33/76
f 26/98/77 34/99/77 28/100/77
f 36/38/78 33/32/78 32/36/78
f 34/99/79 38/101/79 40/102/79
f 39/39/80 40/97/80 38/103/80
f 37/35/81 39/104/81 36/38/81
f 47/45/82 51/41/82 55/50/82
f 43/105/83 52/106/83 45/107/83
f 49/108/84 44/16/84 54/18/84
f 53/109/85 45/107/85 52/106/85
f 55/46/86 53/97/86 56/44/86
f 57/47/87 55/50/87 50/43/87
f 60/110/88 72/111/88 63/112/88
f 60/110/89 63/112/89 62/113/89
f 78/114/90 72/111/90 73/101/90
f 77/115/91 78/97/91 76/52/91
f 82/110/92 94/116/92 85/117/92
f 82/110/93 85/117/93 84/118/93
f 94/116/94 95/101/94 100/119/94
f 99/58/95 100/97/95 98/61/95
f 102/110/96 109/120/96 103/64/96
f 107/63/97 105/121/97 103/64/97
f 106/122/98 104/68/98 108/67/98
f 102/123/99 106/122/99 109/124/99
f 111/125/100 120/126/100 112/127/100
f 113/31/101 112/127/101 118/73/101
f 120/128/102 118/73/102 112/127/102
f 114/19/103 116/72/103 115/74/103
f 110/129/104 114/19/104 115/130/104
f 117/131/105 115/74/105 119/132/105
f 119/132/106 120/97/106 117/131/106
f 121/133/107 128/134/107 122/135/107
f 124/80/108 125/76/108 122/135/108
f 121/136/109 126/137/109 128/124/109
f 127/77/110 128/97/110 126/137/110
f 130/125/111 137/138/111 132/139/111
f 141/86/112 136/32/112 135/84/112
f 138/18/113 135/140/113 131/16/113
f 129/141/114 133/19/114 134/142/114
f 140/143/115 134/85/115 141/144/115
f 141/144/116 137/97/116 140/143/116
f 150/87/117 146/145/117 152/88/117
f 153/146/118 145/147/118 143/148/118
f 149/149/119 144/16/119 146/18/119
f 146/145/120 150/87/120 149/91/120
f 143/150/121 154/151/121 153/124/121
f 155/92/122 157/97/122 154/151/122
f 16/1/123 5/96/123 6/7/123
f 1/13/124 5/17/124 4/16/124
f 7/18/125 11/22/125 4/16/125
f 13/32/126 8/19/126 11/22/126
f 8/19/127 2/14/127 1/13/127
f 9/6/128 19/11/128 10/25/128
f 15/10/129 3/152/129 2/26/129
f 15/101/130 22/153/130 14/8/130
f 20/104/131 18/2/131 23/30/131
f 1/13/132 11/22/132 8/19/132
f 37/154/133 28/100/133 34/40/133
f 38/103/134 25/155/134 31/156/134
f 26/15/135 27/16/135 24/13/135
f 33/32/136 29/19/136 32/157/136
f 32/157/137 27/16/137 35/18/137
f 31/21/138 24/13/138 29/19/138
f 30/37/139 38/103/139 31/156/139
f 38/103/140 26/158/140 25/155/140
f 29/19/141 27/16/141 32/157/141
f 57/48/142 45/107/142 53/109/142
f 56/44/143 42/159/143 48/160/143
f 43/15/144 44/16/144 41/13/144
f 51/41/145 46/19/145 49/108/145
f 54/49/146 50/43/146 49/42/146
f 41/13/147 48/21/147 42/14/147
f 52/124/148 42/159/148 56/44/148
f 47/45/149 56/44/149 48/160/149
f 46/19/150 44/16/150 49/108/150
f 53/161/151 52/162/151 56/101/151
f 75/57/152 66/163/152 71/41/152
f 67/164/153 73/51/153 59/165/153
f 63/112/154 64/166/154 62/113/154
f 74/167/155 72/55/155 79/168/155
f 58/13/156 62/17/156 61/16/156
f 64/18/157 68/22/157 61/16/157
f 69/53/158 74/167/158 70/54/158
f 71/41/159 65/19/159 68/22/159
f 58/13/160 67/21/160 59/14/160
f 66/163/161 76/52/161 67/164/161
f 74/167/162 79/168/162 70/54/162
f 73/51/163 60/169/163 59/165/163
f 77/104/164 70/54/164 79/56/164
f 61/16/165 65/19/165 58/13/165
f 89/170/166 95/60/166 81/155/166
f 85/117/167 86/31/167 84/118/167
f 91/42/168 97/4/168 93/32/168
f 94/62/169 96/171/169 85/117/169
f 80/13/170 84/17/170 83/16/170
f 83/16/171 91/23/171 90/22/171
f 91/42/172 96/171/172 92/172/172
f 93/32/173 87/19/173 90/22/173
f 87/19/174 81/14/174 80/13/174
f 88/59/175 98/61/175 89/170/175
f 96/171/176 101/173/176 92/172/176
f 95/60/177 82/169/177 81/155/177
f 99/104/178 92/172/178 101/30/178
f 87/19/179 83/16/179 90/22/179
f 103/174/180 104/175/180 102/176/180
f 102/123/181 104/68/181 106/122/181
f 105/121/182 107/63/182 108/70/182
f 107/63/183 109/177/183 108/70/183
f 111/15/184 113/178/184 110/129/184
f 117/131/185 110/179/185 115/74/185
f 117/131/186 111/180/186 110/179/186
f 114/19/187 113/178/187 116/181/187
f 125/182/188 121/183/188 122/184/188
f 126/137/189 121/136/189 123/78/189
f 124/80/190 122/135/190 128/185/190
f 123/78/191 127/77/191 126/137/191
f 139/186/192 132/139/192 137/187/192
f 140/143/193 129/188/193 134/85/193
f 130/15/194 131/16/194 129/141/194
f 136/32/195 133/19/195 135/140/195
f 140/143/196 130/180/196 129/188/196
f 131/16/197 133/19/197 129/141/197
f 142/13/198 145/17/198 144/16/198
f 155/92/199 148/189/199 151/90/199
f 154/151/200 143/150/200 148/189/200
f 147/19/201 151/90/201 148/189/201
f 147/19/202 143/190/202 142/13/202
f 152/88/203 145/147/203 153/146/203
f 155/92/204 154/151/204 148/189/204
f 157/101/205 153/146/205 154/101/205
f 144/16/206 147/19/206 142/13/206
f 152/88/207 153/146/207 156/191/207
f 150/87/208 156/89/208 155/93/208
f 10/25/209 19/11/209 15/10/209
f 16/1/210 7/31/210 5/96/210
f 1/13/211 3/15/211 5/17/211
f 7/18/212 12/23/212 11/22/212
f 13/32/213 9/6/213 8/19/213
f 8/19/214 10/21/214 2/14/214
f 9/6/215 20/5/215 19/11/215
f 15/10/216 14/124/216 3/152/216
f 15/101/217 21/192/217 22/153/217
f 20/104/218 17/4/218 18/2/218
f 1/13/132 4/16/132 11/22/132
f 37/154/219 35/34/219 28/100/219
f 26/15/220 28/17/220 27/16/220
f 33/32/221 30/37/221 29/19/221
f 31/21/222 25/14/222 24/13/222
f 30/37/223 39/39/223 38/103/223
f 38/103/224 34/124/224 26/158/224
f 29/19/225 24/13/225 27/16/225
f 57/48/226 54/49/226 45/107/226
f 43/15/227 45/17/227 44/16/227
f 51/41/228 47/45/228 46/19/228
f 41/13/229 46/19/229 48/21/229
f 52/124/230 43/158/230 42/159/230
f 46/19/231 41/13/231 44/16/231
f 75/57/232 77/115/232 66/163/232
f 67/164/233 76/52/233 73/51/233
f 63/112/234 74/167/234 64/166/234
f 74/167/235 63/112/235 72/55/235
f 58/13/236 60/15/236 62/17/236
f 64/18/237 69/23/237 68/22/237
f 69/53/238 64/166/238 74/167/238
f 71/41/239 66/163/239 65/19/239
f 58/13/240 65/19/240 67/21/240
f 66/163/241 77/115/241 76/52/241
f 73/51/242 72/124/242 60/169/242
f 77/104/243 75/57/243 70/54/243
f 61/16/165 68/22/165 65/19/165
f 89/170/244 98/61/244 95/60/244
f 85/117/245 96/171/245 86/31/245
f 91/42/246 92/172/246 97/4/246
f 94/62/247 101/173/247 96/171/247
f 80/13/248 82/15/248 84/17/248
f 83/16/249 86/18/249 91/23/249
f 91/42/250 86/31/250 96/171/250
f 93/32/251 88/59/251 87/19/251
f 87/19/252 89/21/252 81/14/252
f 88/59/253 99/58/253 98/61/253
f 95/60/254 94/124/254 82/169/254
f 99/104/255 97/4/255 92/172/255
f 87/19/179 80/13/179 83/16/179
f 103/174/256 105/69/256 104/175/256
f 111/15/257 112/17/257 113/178/257
f 117/131/258 120/124/258 111/180/258
f 114/19/259 110/129/259 113/178/259
f 125/182/260 123/193/260 121/183/260
f 139/186/261 138/82/261 132/139/261
f 130/15/262 132/17/262 131/16/262
f 136/32/263 134/85/263 133/19/263
f 140/143/264 137/124/264 130/180/264
f 131/16/265 135/140/265 133/19/265
f 142/13/266 143/190/266 145/17/266
f 147/19/267 149/149/267 151/90/267
f 147/19/268 148/194/268 143/190/268
f 152/88/269 146/145/269 145/147/269
f 157/101/270 156/195/270 153/146/270
f 144/16/271 149/149/271 147/19/271
